# xmcd
#
# Track frame offsets: 
#        150
#        29051
#        64095
#        76305
#        105229
#        127313
#        154650
#        179698
#        205274
#        216096
#        242093
#        264176
#        283596
#        302799
#        315302
#
# Disc length: 4527 seconds
#
# Revision: 0
# Processed by: cddbd v1.5.2PL0 Copyright (c) Steve Scherf et al.
# Submitted via: ExactAudioCopy v1.0b3
#
DISCID=d411ad0f
DTITLE=Various Artist - Svenska Skratt [CD 1)
DYEAR=2011
DGENRE=Comedy
TTITLE0=Martin Ljung and Sten Ardenstam - 55:an Olga
TTITLE1=Martin Ljung - Lektion i komedi
TTITLE2=Povel Ramel and Martin Ljung - Far Jag Kan Inte Få Upp Min Kokos
TTITLE2=nöt
TTITLE3=Martin Ljung - Ester
TTITLE4=Martin Ljung - Svarta Malin
TTITLE5=Povel Ramel - Jaha - Nähä
TTITLE6=Stig Grybe - Mej Lurar Man Inte
TTITLE7=Stig Grybe - Livsskådaren
TTITLE8=Stig Grybe and Beppe Wolgers - Så Kan Man Väl Inte Säga Heller
TTITLE9=Martin Ljung and Brita Borg - Jasså (Fnissversion)
TTITLE10=Martin Ljung - Box-Fnykis
TTITLE11=Povel Ramel - Måste Vägen Till Curacau Gynga Så?
TTITLE12=Povel Ramel and Wencke Myhre - De Sista Entusiasterna
TTITLE13=Povel Ramel and Wencke Myhre - Jag Diggar Dej!
TTITLE14=Povel Ramel and Gals Pals - Ta Av Dej Skorna!
EXTD=
EXTT0=
EXTT1=
EXTT2=
EXTT3=
EXTT4=
EXTT5=
EXTT6=
EXTT7=
EXTT8=
EXTT9=
EXTT10=
EXTT11=
EXTT12=
EXTT13=
EXTT14=
PLAYORDER=
